# File created by Blade
# Date/Time:  Mon Nov 15 14:44:42 2010
#---------------------------------------------------------
:version 1.10
:name HOM
:units
  mass 1.0
  length 1.000000
  angle deg
:documentation
     Acclaim Skeleton File
:root
   axis xyz
   order TX TY TZ RX RY RZ
   position 0.000000 0.000000 0.000000
   orientation 0 0 0
:bonedata
   begin
      id 1
      name LeftUpLeg_dum
      direction 1.000000 0.000000 0.000000
      length 4.719518
      axis 0.0 0.0 0.0 xyz
   end
   begin
      id 2
      name RightUpLeg_dum
      direction -1.000000 0.000000 0.000000
      length 4.719518
      axis 0.0 0.0 0.0 xyz
   end
   begin
      id 3
      name Spine_dum
      direction 0.000000 1.000000 0.000000
      length 0.039370
      axis 0.0 0.0 0.0 xyz
   end
   begin
      id 4
      name LeftUpLeg
      direction 0.000000 -1.000000 0.000000
      length 19.141694
      axis 0.0 0.0 0.0 xyz
      dof rx ry rz
   end
   begin
      id 5
      name LeftLeg
      direction 0.000000 -1.000000 0.000000
      length 19.555040
      axis 0.0 0.0 0.0 xyz
      dof rx ry rz
   end
   begin
      id 6
      name LeftFoot
      direction 0.000000 -0.258819 0.965926
      length 6.929396
      axis 15.0 0.0 0.0 xyz
      dof rx ry rz
   end
   begin
      id 7
      name LeftToeBase
      direction 0.000000 0.000000 1.000000
      length 2.952750
      axis 0.0 0.0 0.0 xyz
      dof rx ry rz
   end
   begin
      id 8
      name RightUpLeg
      direction 0.000000 -1.000000 0.000000
      length 19.141694
      axis 0.0 0.0 0.0 xyz
      dof rx ry rz
   end
   begin
      id 9
      name RightLeg
      direction 0.000000 -1.000000 0.000000
      length 19.555040
      axis 0.0 0.0 0.0 xyz
      dof rx ry rz
   end
   begin
      id 10
      name RightFoot
      direction 0.000000 -0.258819 0.965926
      length 6.929396
      axis 15.0 0.0 0.0 xyz
      dof rx ry rz
   end
   begin
      id 11
      name RightToeBase
      direction 0.000000 0.000000 1.000000
      length 2.952750
      axis 0.0 0.0 0.0 xyz
      dof rx ry rz
   end
   begin
      id 12
      name Spine
      direction 0.000000 1.000000 0.000000
      length 11.965764
      axis 0.0 0.0 0.0 xyz
      dof rx ry rz
   end
   begin
      id 13
      name Spine1
      direction 0.000000 1.000000 0.000000
      length 0.000000
      axis 0.0 0.0 0.0 xyz
      dof rx ry rz
   end
   begin
      id 14
      name Spine1_dum1
      direction 0.000000 1.000000 0.000000
      length 9.788721
      axis 0.0 0.0 0.0 xyz
   end
   begin
      id 15
      name Spine1_dum2
      direction 0.000000 1.000000 0.000000
      length 9.788721
      axis 0.0 0.0 0.0 xyz
   end
   begin
      id 16
      name Spine1_dum3
      direction 0.000000 1.000000 0.000000
      length 9.788721
      axis 0.0 0.0 0.0 xyz
   end
   begin
      id 17
      name Neck
      direction 0.000000 1.000000 0.000000
      length 7.029632
      axis 0.0 0.0 0.0 xyz
      dof rx ry rz
   end
   begin
      id 18
      name Head
      direction 0.000000 1.000000 0.000000
      length 4.527550
      axis 0.0 0.0 0.0 xyz
      dof rx ry rz
   end
   begin
      id 19
      name LeftShoulder
      direction 1.000000 -0.000004 0.000000
      length 9.320257
      axis 0.0 0.0 -90.0 xyz
      dof rx ry rz
   end
   begin
      id 20
      name LeftArm
      direction 1.000000 -0.000004 0.000000
      length 12.801352
      axis 0.0 0.0 -90.0 xyz
      dof rx ry rz
   end
   begin
      id 21
      name LeftForeArm
      direction 1.000000 -0.000004 0.000000
      length 11.278127
      axis 0.0 0.0 -90.0 xyz
      dof rx ry rz
   end
   begin
      id 22
      name LeftHand
      direction 0.000000 0.000000 0.000000
      length 0.000000
      axis 0.0 0.0 -90.0 xyz
      dof rx ry rz
   end
   begin
      id 23
      name LeftHand_dum1
      direction 0.000000 0.000000 0.000000
      length 0.000000
      axis 0.0 0.0 -90.0 xyz
   end
   begin
      id 24
      name LeftHand_dum2
      direction 1.000000 -0.000004 0.000000
      length 3.937000
      axis 0.0 0.0 -90.0 xyz
   end
   begin
      id 25
      name LeftHandThumb
      direction 0.000000 0.000000 1.000000
      length 3.937000
      axis 0.0 0.0 -90.0 xyz
      dof rx ry rz
   end
   begin
      id 26
      name RightShoulder
      direction -1.000000 -0.000004 0.000000
      length 9.320257
      axis 0.0 0.0 90.0 xyz
      dof rx ry rz
   end
   begin
      id 27
      name RightArm
      direction -1.000000 -0.000004 0.000000
      length 12.801352
      axis 0.0 0.0 90.0 xyz
      dof rx ry rz
   end
   begin
      id 28
      name RightForeArm
      direction -1.000000 -0.000004 0.000000
      length 11.278127
      axis 0.0 0.0 90.0 xyz
      dof rx ry rz
   end
   begin
      id 29
      name RightHand
      direction 0.000000 0.000000 0.000000
      length 0.000000
      axis 0.0 0.0 90.0 xyz
      dof rx ry rz
   end
   begin
      id 30
      name RightHand_dum1
      direction 0.000000 0.000000 0.000000
      length 0.000000
      axis 0.0 0.0 90.0 xyz
   end
   begin
      id 31
      name RightHand_dum2
      direction -1.000000 -0.000004 0.000000
      length 5.393690
      axis 0.0 0.0 90.0 xyz
   end
   begin
      id 32
      name RightHandThumb
      direction 0.000000 0.000000 1.000000
      length 3.937000
      axis 0.0 0.0 90.0 xyz
      dof rx ry rz
   end
:hierarchy
   begin
      root LeftUpLeg_dum RightUpLeg_dum Spine_dum
      LeftUpLeg_dum LeftUpLeg
      RightUpLeg_dum RightUpLeg
      Spine_dum Spine
      LeftUpLeg LeftLeg
      LeftLeg LeftFoot
      LeftFoot LeftToeBase
      RightUpLeg RightLeg
      RightLeg RightFoot
      RightFoot RightToeBase
      Spine Spine1
      Spine1 Spine1_dum1 Spine1_dum2 Spine1_dum3
      Spine1_dum1 Neck
      Spine1_dum2 LeftShoulder
      Spine1_dum3 RightShoulder
      Neck Head
      LeftShoulder LeftArm
      LeftArm LeftForeArm
      LeftForeArm LeftHand
      LeftHand LeftHand_dum1 LeftHand_dum2
      LeftHand_dum1 LeftHandThumb
      RightShoulder RightArm
      RightArm RightForeArm
      RightForeArm RightHand
      RightHand RightHand_dum1 RightHand_dum2
      RightHand_dum1 RightHandThumb
   end

# File created by Blade
# Date/Time:  Mon Nov 15 14:56:25 2010
# Frame Rate: 200.000 fps
#------------------------------------------------------
:FULLY-SPECIFIED
:DEGREES
224
root  8.146827 38.615332 -79.592237 -8.335341 4.844323 4.042180
LeftUpLeg  26.139350 4.470956 -6.501631
LeftLeg  -2.158792 0.000000 -0.000000
LeftFoot  -10.350124 8.093831 0.541535
LeftToeBase  -22.558601 0.000000 -0.000000
RightUpLeg  -22.373223 -5.757262 -3.019718
RightLeg  18.535996 -0.000000 0.000000
RightFoot  3.522453 -15.395071 -5.402265
RightToeBase  -33.604559 0.000000 -0.000000
Spine  12.175960 -5.062309 -3.041211
Spine1  4.715256 -4.256096 -6.278843
Neck  18.011159 -2.685629 -0.213247
Head  -27.199463 -1.040285 8.034938
LeftShoulder  -7.756636 12.677411 0.556537
LeftArm  24.839250 33.026672 -68.528668
LeftForeArm  40.456135 -0.000000 0.000000
LeftHand  -7.871379 13.754848 -10.156999
LeftHandThumb  0.000000 -0.000000 0.000000
RightShoulder  -16.997519 -15.151133 5.836858
RightArm  7.540852 -30.795801 81.039024
RightForeArm  25.424300 -0.000000 0.000000
RightHand  -6.950319 6.625420 24.115351
RightHandThumb  0.000000 -0.000000 0.000000
225
root  8.156851 38.565405 -79.440375 -8.168397 4.841755 4.156955
LeftUpLeg  26.299711 4.575025 -6.550447
LeftLeg  -2.360914 0.000000 -0.000000
LeftFoot  -10.327482 7.926547 0.399465
LeftToeBase  -22.391435 0.000000 -0.000000
RightUpLeg  -22.782270 -5.821528 -3.106746
RightLeg  18.325988 -0.000000 0.000000
RightFoot  3.575316 -15.017465 -5.414304
RightToeBase  -33.502252 0.000000 -0.000000
Spine  12.122962 -5.069034 -3.091648
Spine1  4.745941 -4.276447 -6.292239
Neck  18.056020 -2.702731 -0.184733
Head  -27.351136 -0.999102 8.111694
LeftShoulder  -7.722224 12.659959 0.586061
LeftArm  25.196017 33.203564 -68.026954
LeftForeArm  41.625048 -0.000000 0.000000
LeftHand  -7.977723 14.031817 -10.171166
LeftHandThumb  0.000000 -0.000000 0.000000
RightShoulder  -17.010122 -15.165334 5.901357
RightArm  7.753104 -31.093779 80.757227
RightForeArm  25.928314 -0.000000 0.000000
RightHand  -6.554788 6.641118 23.964727
RightHandThumb  0.000000 -0.000000 0.000000
226
root  8.168201 38.513793 -79.287819 -8.002535 4.837103 4.287257
LeftUpLeg  26.480552 4.676767 -6.617046
LeftLeg  -2.588384 0.000000 -0.000000
LeftFoot  -10.289535 7.761800 0.233734
LeftToeBase  -22.137928 0.000000 -0.000000
RightUpLeg  -23.200866 -5.838878 -3.228673
RightLeg  18.182746 -0.000000 0.000000
RightFoot  3.703545 -14.686556 -5.428289
RightToeBase  -33.418608 0.000000 -0.000000
Spine  12.076585 -5.070147 -3.158251
Spine1  4.769776 -4.297657 -6.304916
Neck  18.227640 -2.914074 -0.090592
Head  -27.674315 -0.876714 8.018418
LeftShoulder  -7.675726 12.615826 0.669809
LeftArm  25.453414 33.161319 -67.800457
LeftForeArm  42.598952 -0.000000 0.000000
LeftHand  -8.025972 14.176584 -10.254158
LeftHandThumb  0.000000 -0.000000 0.000000
RightShoulder  -16.999726 -15.180675 5.966048
RightArm  7.957973 -31.291817 80.466310
RightForeArm  26.416453 -0.000000 0.000000
RightHand  -6.114361 6.659987 23.777812
RightHandThumb  0.000000 -0.000000 0.000000
227
root  8.178487 38.461078 -79.130957 -7.836686 4.832076 4.417545
LeftUpLeg  26.661302 4.778717 -6.683331
LeftLeg  -2.815853 0.000000 -0.000000
LeftFoot  -10.251123 7.597164 0.067956
LeftToeBase  -21.884421 0.000000 -0.000000
RightUpLeg  -23.619437 -5.857113 -3.350474
RightLeg  18.039504 -0.000000 0.000000
RightFoot  3.831499 -14.355619 -5.441490
RightToeBase  -33.334965 0.000000 -0.000000
Spine  12.030209 -5.071314 -3.224853
Spine1  4.793618 -4.318862 -6.317603
Neck  18.398945 -3.125698 0.002934
Head  -27.997683 -0.754854 7.924456
LeftShoulder  -7.629302 12.571626 0.753506
LeftArm  25.710484 33.118223 -67.574298
LeftForeArm  43.572856 -0.000000 0.000000
LeftHand  -8.074469 14.321282 -10.337330
LeftHandThumb  0.000000 -0.000000 0.000000
RightShoulder  -16.989348 -15.196026 6.030742
RightArm  8.164450 -31.488959 80.173953
RightForeArm  26.904592 -0.000000 0.000000
RightHand  -5.673981 6.680283 23.591042
RightHandThumb  0.000000 -0.000000 0.000000
228
root  8.184180 38.408164 -78.964960 -7.750153 4.883192 4.460264
LeftUpLeg  26.964054 4.824786 -6.647667
LeftLeg  -3.099825 0.000000 -0.000000
LeftFoot  -10.204217 7.422089 -0.075922
LeftToeBase  -21.602541 0.000000 -0.000000
RightUpLeg  -23.918080 -5.930631 -3.394894
RightLeg  17.908394 -0.000000 0.000000
RightFoot  4.031868 -14.038918 -5.524766
RightToeBase  -33.480832 0.000000 -0.000000
Spine  12.057742 -5.106825 -3.226026
Spine1  4.791556 -4.352791 -6.301907
Neck  18.514170 -3.113127 0.007020
Head  -28.240073 -0.739983 8.033347
LeftShoulder  -7.567097 12.476406 0.832998
LeftArm  25.841560 33.008372 -67.438268
LeftForeArm  44.498453 -0.000000 0.000000
LeftHand  -8.155832 14.050526 -10.578253
LeftHandThumb  0.000000 -0.000000 0.000000
RightShoulder  -16.977168 -15.143368 6.044996
RightArm  8.264022 -31.401678 80.023601
RightForeArm  27.304474 -0.000000 0.000000
RightHand  -5.421278 6.573158 23.548975
RightHandThumb  0.000000 -0.000000 0.000000
229
root  8.189674 38.353926 -78.794966 -7.663575 4.934244 4.503063
LeftUpLeg  27.266855 4.870667 -6.611756
LeftLeg  -3.383797 0.000000 -0.000000
LeftFoot  -10.156886 7.247131 -0.219887
LeftToeBase  -21.320661 0.000000 -0.000000
RightUpLeg  -24.216706 -6.004378 -3.438934
RightLeg  17.777284 -0.000000 0.000000
RightFoot  4.231490 -13.721937 -5.606788
RightToeBase  -33.626699 0.000000 -0.000000
Spine  12.085278 -5.142336 -3.227217
Spine1  4.789484 -4.386720 -6.286210
Neck  18.629394 -3.100564 0.011131
Head  -28.482432 -0.724652 8.142174
LeftShoulder  -7.505050 12.381102 0.912354
LeftArm  25.972161 32.898261 -67.302707
LeftForeArm  45.424049 -0.000000 0.000000
LeftHand  -8.235927 13.779441 -10.818498
LeftHandThumb  0.000000 -0.000000 0.000000
RightShoulder  -16.964978 -15.090712 6.059258
RightArm  8.363233 -31.314175 79.873567
RightForeArm  27.704356 -0.000000 0.000000
RightHand  -5.168550 6.466219 23.506442
RightHandThumb  0.000000 -0.000000 0.000000
230
root  8.199318 38.297087 -78.624395 -7.457102 4.858534 4.711238
LeftUpLeg  27.465930 5.113619 -6.701625
LeftLeg  -3.658043 0.000000 -0.000000
LeftFoot  -10.061948 6.930415 -0.501935
LeftToeBase  -21.214142 0.000000 -0.000000
RightUpLeg  -24.716715 -5.933483 -3.632136
RightLeg  17.832460 -0.000000 0.000000
RightFoot  4.325133 -13.408580 -5.541095
RightToeBase  -33.620388 0.000000 -0.000000
Spine  11.891797 -5.087627 -3.355296
Spine1  4.983261 -4.365417 -6.319297
Neck  18.660616 -3.216025 0.083102
Head  -28.673323 -0.605627 8.118786
LeftShoulder  -7.439251 12.268008 1.035372
LeftArm  26.185653 32.701122 -67.194944
LeftForeArm  46.216279 -0.000000 0.000000
LeftHand  -8.089706 13.268618 -10.931372
LeftHandThumb  0.000000 -0.000000 0.000000
RightShoulder  -16.983664 -15.003486 6.121113
RightArm  8.667979 -31.408578 79.561146
RightForeArm  27.976584 -0.000000 0.000000
RightHand  -4.563692 6.661501 23.111603
RightHandThumb  0.000000 -0.000000 0.000000
